<svg id="uuid-b7b6230b-2830-4047-9649-24573b4863e0" data-name="Layer 1" version="1.1"
    width="1572.14" height="1587.88" xmlns:xlink="http://www.w3.org/1999/xlink"
    xmlns="http://www.w3.org/2000/svg">
    <defs id="defs36">
        <clipPath id="uuid-ff370001-a1d6-4636-94eb-0d03a7fbf417">
            <path class="uuid-f5faaeca-39f7-4750-9b16-0292479f009d"
                d="M2546.6 2311.81c34.44 0 62.35 27.91 62.35 62.35s-27.91 62.34-62.35 62.34-62.35-27.91-62.35-62.34c0-34.43 27.91-62.35 62.35-62.35m-662.78 678.16c34.43 0 62.35 27.91 62.35 62.34 0 34.43-27.92 62.35-62.35 62.35s-62.35-27.91-62.35-62.35 27.91-62.34 62.35-62.34zm-64.47-758.79 2.79-642.13h146.1l560.75 662.98c5.75-.82 11.64-1.26 17.62-1.26 68.14 0 123.37 55.24 123.37 123.38 0 68.14-55.23 123.37-123.37 123.37-68.14 0-123.37-55.24-123.37-123.37 0-15.41 2.83-30.16 7.99-43.76l-484.78-573.16-1.72 397.11h1.47l-3.44 789.55c38.39 20.91 64.44 61.62 64.44 108.41 0 68.14-55.23 123.37-123.37 123.37-68.14 0-123.37-55.23-123.37-123.37 0-43.81 22.84-82.29 57.26-104.17l3.12-716.96h-1.47z"
                id="path4" />
        </clipPath>
        <clipPath id="uuid-69cf22ee-6812-4663-ad6a-935a393884dc">
            <path class="uuid-f5faaeca-39f7-4750-9b16-0292479f009d"
                d="M1683.04 1622.48c0 34.44-27.91 62.35-62.35 62.35s-62.35-27.91-62.35-62.35 27.91-62.35 62.35-62.35 62.35 27.91 62.35 62.35m492.51 640.21c34.43 0 62.35 27.91 62.35 62.35s-27.92 62.35-62.35 62.35-62.35-27.91-62.35-62.35 27.91-62.35 62.35-62.35zm-491.09 1020.52v-1555.1c35.72-21.61 59.6-60.83 59.6-105.63 0-68.14-55.23-123.37-123.37-123.37-68.14 0-123.37 55.23-123.37 123.37 0 45.64 24.78 85.49 61.63 106.83v1679.42h670.55l.34-62.52c1.68-303.72-.14-607.45 1.54-911.13 40.09-20.38 67.55-62 67.55-110.05 0-68.14-55.23-123.37-123.37-123.37-68.14 0-123.37 55.23-123.37 123.37 0 42.32 21.31 79.66 53.78 101.89 0 285.31-.49 570.66-.81 856.28h-420.68z"
                id="path12" />
        </clipPath>
        <clipPath id="uuid-f137b4e2-3fe1-45dd-a330-e8f8ac566771">
            <path class="uuid-f5faaeca-39f7-4750-9b16-0292479f009d"
                d="M2546.44 2313.05c-34.43 0-62.34 27.92-62.34 62.35s27.91 62.35 62.34 62.35c34.43 0 62.35-27.91 62.35-62.35s-27.91-62.35-62.35-62.35m662.79 678.17c-34.44 0-62.35 27.92-62.35 62.35s27.91 62.35 62.35 62.35 62.34-27.91 62.34-62.35-27.91-62.35-62.34-62.35zm64.47-758.78-2.8-642.12h-146.09l-560.75 662.98a124.93 124.93 0 0 0-17.62-1.26c-68.14 0-123.37 55.23-123.37 123.37 0 68.14 55.23 123.37 123.37 123.37 68.14 0 123.37-55.23 123.37-123.37 0-15.41-2.83-30.15-7.99-43.75l484.78-573.16 1.73 397.12h-1.47l3.44 789.55c-38.39 20.91-64.44 61.62-64.44 108.41 0 68.14 55.23 123.37 123.37 123.37 68.14 0 123.37-55.23 123.37-123.37 0-43.81-22.84-82.29-57.26-104.18l-3.12-716.96h1.47z"
                id="path16" />
        </clipPath>
        <clipPath id="uuid-5955a0c3-147f-474e-9ecc-629729b5d5d1">
            <path class="uuid-f5faaeca-39f7-4750-9b16-0292479f009d"
                d="M3410 1623.73c0 34.44 27.92 62.35 62.35 62.35s62.35-27.91 62.35-62.35-27.91-62.35-62.35-62.35-62.35 27.91-62.35 62.35m-492.51 640.21c-34.44 0-62.35 27.91-62.35 62.35s27.91 62.35 62.35 62.35 62.34-27.91 62.34-62.35-27.91-62.35-62.34-62.35zm491.08 1020.52v-1555.1c-35.72-21.61-59.6-60.83-59.6-105.63 0-68.14 55.23-123.37 123.37-123.37 68.14 0 123.37 55.23 123.37 123.37 0 45.64-24.78 85.49-61.63 106.83v1679.42h-670.55l-.34-62.52c-1.68-303.72.14-607.45-1.55-911.13-40.08-20.38-67.54-62-67.54-110.05 0-68.14 55.23-123.37 123.37-123.37 68.14 0 123.37 55.23 123.37 123.37 0 42.32-21.31 79.66-53.78 101.89 0 285.31.49 570.66.81 856.29h420.68z"
                id="path20" />
        </clipPath>
        <clipPath id="uuid-94ebb99f-2ff1-4a98-9328-a8fd7c7d76af">
            <path class="uuid-c5718a26-47ce-4b29-8f8f-f7aabb409068"
                d="M4537.91 4510.44c5.88 0 10.64 4.77 10.64 10.64 0 5.87-4.77 10.64-10.64 10.64-5.87 0-10.64-4.77-10.64-10.64 0-5.87 4.77-10.64 10.64-10.64m-113.15 115.78c5.88 0 10.64 4.77 10.64 10.64 0 5.87-4.77 10.64-10.64 10.64-5.87 0-10.64-4.77-10.64-10.64 0-5.87 4.77-10.64 10.64-10.64zm-11.01-129.54.48-109.63h24.94l95.73 113.19c.98-.14 1.99-.22 3.01-.22 11.63 0 21.06 9.43 21.06 21.06 0 11.63-9.43 21.06-21.06 21.06-11.63 0-21.06-9.43-21.06-21.06 0-2.63.48-5.15 1.36-7.47l-82.76-97.85-.29 67.8h.25l-.59 134.8c6.55 3.57 11 10.52 11 18.51 0 11.63-9.43 21.06-21.06 21.06-11.63 0-21.06-9.43-21.06-21.06 0-7.48 3.9-14.05 9.78-17.79l.53-122.4h-.25z"
                id="path24" />
        </clipPath>
        <clipPath id="uuid-37c2493f-6b31-4a98-a35f-6b95ff7a832a">
            <path class="uuid-c5718a26-47ce-4b29-8f8f-f7aabb409068"
                d="M4390.47 4392.75c0 5.88-4.77 10.64-10.64 10.64-5.87 0-10.64-4.77-10.64-10.64 0-5.87 4.77-10.64 10.64-10.64 5.87 0 10.64 4.77 10.64 10.64m84.09 109.3c5.88 0 10.64 4.77 10.64 10.64 0 5.87-4.77 10.64-10.64 10.64-5.87 0-10.64-4.77-10.64-10.64 0-5.87 4.77-10.64 10.64-10.64zm-83.84 174.23v-265.5c6.1-3.69 10.17-10.39 10.17-18.03 0-11.63-9.43-21.06-21.06-21.06-11.63 0-21.06 9.43-21.06 21.06 0 7.79 4.23 14.6 10.52 18.24v286.72h114.48l.06-10.67c.29-51.85-.02-103.71.26-155.55 6.84-3.48 11.53-10.58 11.53-18.79 0-11.63-9.43-21.06-21.06-21.06-11.63 0-21.06 9.43-21.06 21.06 0 7.23 3.64 13.6 9.18 17.39 0 48.71-.08 97.43-.14 146.19z"
                id="path27" />
        </clipPath>
        <clipPath id="uuid-2f4e2e96-f0c4-4812-bf9b-5c7b0925e270">
            <path class="uuid-c5718a26-47ce-4b29-8f8f-f7aabb409068"
                d="M4537.88 4510.65c-5.88 0-10.64 4.77-10.64 10.64 0 5.87 4.77 10.64 10.64 10.64 5.87 0 10.64-4.77 10.64-10.64 0-5.87-4.77-10.64-10.64-10.64m113.16 115.78c-5.88 0-10.64 4.77-10.64 10.64 0 5.87 4.77 10.64 10.64 10.64 5.87 0 10.64-4.77 10.64-10.64 0-5.87-4.77-10.64-10.64-10.64zm11.01-129.54-.48-109.63h-24.94l-95.73 113.19c-.98-.14-1.99-.21-3.01-.21-11.63 0-21.06 9.43-21.06 21.06 0 11.63 9.43 21.06 21.06 21.06 11.63 0 21.06-9.43 21.06-21.06 0-2.63-.48-5.15-1.36-7.47l82.76-97.85.29 67.8h-.25l.59 134.8c-6.55 3.57-11 10.52-11 18.51 0 11.63 9.43 21.06 21.06 21.06 11.63 0 21.06-9.43 21.06-21.06 0-7.48-3.9-14.05-9.78-17.79l-.53-122.4h.25z"
                id="path30" />
        </clipPath>
        <clipPath id="uuid-11f281bf-a41c-44e4-8a97-46049bccdbd4">
            <path class="uuid-c5718a26-47ce-4b29-8f8f-f7aabb409068"
                d="M4685.31 4392.97c0 5.88 4.77 10.64 10.64 10.64 5.87 0 10.64-4.77 10.64-10.64 0-5.87-4.77-10.64-10.64-10.64-5.87 0-10.64 4.77-10.64 10.64m-84.08 109.3c-5.88 0-10.64 4.77-10.64 10.64 0 5.87 4.77 10.64 10.64 10.64 5.87 0 10.64-4.77 10.64-10.64 0-5.87-4.77-10.64-10.64-10.64zm83.84 174.23V4411c-6.1-3.69-10.17-10.39-10.17-18.03 0-11.63 9.43-21.06 21.06-21.06 11.63 0 21.06 9.43 21.06 21.06 0 7.79-4.23 14.6-10.52 18.24v286.72h-114.48l-.06-10.67c-.29-51.85.02-103.71-.26-155.55-6.84-3.48-11.53-10.58-11.53-18.79 0-11.63 9.43-21.06 21.06-21.06 11.63 0 21.06 9.43 21.06 21.06 0 7.23-3.64 13.6-9.18 17.39 0 48.71.08 97.43.14 146.19z"
                id="path33" />
        </clipPath>
        <linearGradient id="uuid-f9e56272-5e27-4967-b970-877fb614ef62" x1="1383.62" y1="3158.02"
            x2="3297.06" y2="1373.31" gradientUnits="userSpaceOnUse">
            <stop offset="0" stop-color="#050A46" id="stop7" />
            <stop offset="1" stop-color="#0082FF" id="stop9" />
        </linearGradient>
        <linearGradient id="uuid-615db68e-2639-4542-97c0-b0d896749f1a" x1="1271.79" y1="3038.12"
            x2="3185.23" y2="1253.41" xlink:href="#uuid-f9e56272-5e27-4967-b970-877fb614ef62" />
        <linearGradient id="uuid-6444bea6-9e82-43ad-9600-d5546c2ec73f" x1="1692.52" y1="3489.19"
            x2="3605.97" y2="1704.48" xlink:href="#uuid-f9e56272-5e27-4967-b970-877fb614ef62" />
        <linearGradient id="uuid-c0489503-f5d6-4da9-b696-7b362f73444e" x1="1875.73" y1="3685.61"
            x2="3789.18" y2="1900.89" xlink:href="#uuid-f9e56272-5e27-4967-b970-877fb614ef62" />
        <linearGradient xlink:href="#uuid-f9e56272-5e27-4967-b970-877fb614ef62"
            id="linearGradient95" gradientUnits="userSpaceOnUse" x1="1383.62" y1="3158.02"
            x2="3297.06" y2="1373.31" />
        <style id="style2">
            .uuid-c5718a26-47ce-4b29-8f8f-f7aabb409068,.uuid-f5faaeca-39f7-4750-9b16-0292479f009d{stroke-width:0}.uuid-f5faaeca-39f7-4750-9b16-0292479f009d{fill:none;clip-rule:evenodd}.uuid-c5718a26-47ce-4b29-8f8f-f7aabb409068{clip-rule:evenodd;fill:#231f20}</style>
    </defs>
    <g id="g269" transform="translate(-1760.46 -1589.06)">
        <g clip-path="url(#uuid-ff370001-a1d6-4636-94eb-0d03a7fbf417)" id="g42"
            style="clip-path:url(#uuid-ff370001-a1d6-4636-94eb-0d03a7fbf417)">
            <path id="rect40" style="fill:url(#linearGradient95);stroke-width:0"
                d="M1760.44 1589.06h909.53v1586.63h-909.53z" />
        </g>
        <g clip-path="url(#uuid-f137b4e2-3fe1-45dd-a330-e8f8ac566771)" id="g50"
            style="clip-path:url(#uuid-f137b4e2-3fe1-45dd-a330-e8f8ac566771)">
            <path id="rect48"
                style="fill:url(#uuid-6444bea6-9e82-43ad-9600-d5546c2ec73f);stroke-width:0"
                d="M2423.06 1590.31h909.54v1586.63h-909.54z" />
        </g>
    </g>
</svg>